<?xml version="1.0" encoding="UTF-8"?>
<svg width="16px" height="16px" viewBox="0 0 16 16" version="1.1" xmlns="http://www.w3.org/2000/svg" xmlns:xlink="http://www.w3.org/1999/xlink">
    <!-- Generator: Sketch 60.1 (88133) - https://sketch.com -->
    <title>评论</title>
    <desc>Created with Sketch.</desc>
    <g id="组件" stroke="none" stroke-width="1" fill="none" fill-rule="evenodd">
        <g id="评论" fill="#777E85" fill-rule="nonzero">
            <path d="M8.00873348,15.2380952 C8,15.2380952 8,15.2380952 8.00873348,15.2380952 C7.58952665,15.2380952 7.22272068,15.0389747 6.97818337,14.6950392 L5.74676333,12.948209 L1.10928785,12.948209 C0.497944563,12.948209 0.00886993603,12.4232549 0.00886993603,11.7715877 L0.00886993603,1.18199536 C0.00886993603,0.530328141 0.506678038,0.00537399182 1.10928785,0.00537399182 L14.8907122,0.00537399182 C15.5020554,0.00537399182 15.9911301,0.530328141 15.9911301,1.18199536 L15.9911301,11.7715877 C15.9911301,12.4232549 15.493322,12.948209 14.8907122,12.948209 L10.2969041,12.948209 L9.03055011,14.7131411 C8.78601279,15.0480256 8.41047335,15.2380952 8.00873348,15.2380952 Z M1.17042217,11.7353839 L5.7904307,11.7353839 C6.13976972,11.7353839 6.47164179,11.9164026 6.67251173,12.2060325 L7.92139872,13.9800155 C7.94759915,14.0162192 7.98253305,14.0252701 8.00873348,14.0252701 C8.0349339,14.0252701 8.0698678,14.0162192 8.09606823,13.9800155 L9.37988913,12.1879306 C9.58949254,11.8983007 9.91263113,11.726333 10.2532367,11.726333 L14.8295778,11.726333 L14.8295778,1.20914816 L1.17042217,1.20914816 L1.17042217,11.7353839 Z M4.26207249,6.07855044 C3.84286567,6.07855044 3.50226013,6.43153685 3.50226013,6.86598166 C3.50226013,7.30042647 3.84286567,7.65341288 4.26207249,7.65341288 C4.68127932,7.65341288 5.02188486,7.30042647 5.02188486,6.86598166 C5.02188486,6.43153685 4.68127932,6.07855044 4.26207249,6.07855044 Z M8.25327079,6.07855044 C7.83406397,6.07855044 7.49345842,6.43153685 7.49345842,6.86598166 C7.49345842,7.30042647 7.83406397,7.65341288 8.25327079,7.65341288 C8.67247761,7.65341288 9.01308316,7.30042647 9.01308316,6.86598166 C9.01308316,6.43153685 8.67247761,6.07855044 8.25327079,6.07855044 Z M12.078533,6.07855044 C11.6593262,6.07855044 11.3187207,6.43153685 11.3187207,6.86598166 C11.3187207,7.30042647 11.6593262,7.65341288 12.078533,7.65341288 C12.4977399,7.65341288 12.8383454,7.30042647 12.8383454,6.86598166 C12.8383454,6.43153685 12.4977399,6.07855044 12.078533,6.07855044 Z" id="形状"></path>
        </g>
    </g>
</svg>