<?xml version="1.0" encoding="UTF-8"?>
<svg width="16px" height="16px" viewBox="0 0 16 16" version="1.1" xmlns="http://www.w3.org/2000/svg" xmlns:xlink="http://www.w3.org/1999/xlink">
    <!-- Generator: Sketch 60.1 (88133) - https://sketch.com -->
    <title>点赞</title>
    <desc>Created with Sketch.</desc>
    <g id="组件" stroke="none" stroke-width="1" fill="none" fill-rule="evenodd">
        <g id="点赞" fill="#777E85">
            <path d="M8.18086278,15.9834322 L4.05291738,15.9834322 C3.77838655,15.9834322 3.5537704,15.7594166 3.5537704,15.4856198 C3.5537704,15.211823 3.77838653,14.9878075 4.05291738,14.9878075 L8.18086278,14.9878075 C8.45539361,14.9878075 8.68000976,15.211823 8.68000976,15.4856198 C8.68000976,15.7594166 8.45539363,15.9834322 8.18086278,15.9834322 Z" id="路径"></path>
            <path d="M4.0479259,15.9834322 L1.01311236,15.9834322 C0.464050702,15.9834322 0.0148184236,15.5354011 0.0148184236,14.9878075 L0.0148184236,6.91329121 C0.0148184236,6.36569763 0.464050702,5.9176665 1.01311236,5.9176665 L4.0479259,5.9176665 C4.32245673,5.9176665 4.54707288,6.14168205 4.54707288,6.41547884 L4.54707288,15.4856198 C4.54707288,15.7594166 4.32744821,15.9834322 4.0479259,15.9834322 Z M1.01311236,6.91329121 L1.01311236,14.9878075 L3.54877894,14.9878075 L3.54877894,6.91329121 L1.01311236,6.91329121 Z" id="形状" fill-rule="nonzero"></path>
            <path d="M13.2971192,15.9834406 L10.8313332,15.9834406 C10.5568023,15.9834406 10.3321862,15.7594166 10.3321862,15.4856198 C10.3321862,15.211823 10.5568023,14.9878075 10.8313332,14.9878075 L13.2971192,14.9878075 C13.5466927,14.9878075 13.7613259,14.808595 13.8012576,14.5596889 L14.9792445,7.50568789 C15.0042018,7.35634419 14.96427,7.20700049 14.8644406,7.09250364 C14.7646113,6.9780068 14.6248501,6.91329119 14.475106,6.91329121 L9.66832075,6.91329121 C9.20411408,6.91329121 8.75987327,6.66936317 8.5402486,6.29600389 C8.35057276,5.977404 8.35057276,5.60902284 8.53525714,5.28544481 C9.14421643,4.21017014 9.53355108,1.62652406 9.24404581,1.21831795 C9.14421643,1.1237336 8.98948086,0.994302396 8.84472826,0.994302374 C8.7049671,0.994302374 8.54524009,1.11875547 8.4404192,1.22827418 C8.37053862,1.32285852 8.18585424,1.81071463 8.03611016,2.2039864 C7.3722447,3.96624212 6.2541555,6.91826933 4.04293443,6.91826933 C3.7684036,6.91826933 3.54378747,6.69425378 3.54378747,6.42045698 C3.54378747,6.14666019 3.7684036,5.92264464 4.04293443,5.92264462 C5.56533268,5.92264462 6.56362662,3.27428293 7.10270533,1.85551775 C7.39720204,1.07893048 7.53197171,0.725483722 7.73163052,0.526358781 C8.43043627,-0.170578503 9.25902023,-0.165600385 9.95283451,0.526358781 C10.8113673,1.38259602 9.9877748,4.73287311 9.39878138,5.77827904 C9.39878138,5.82308214 9.50360225,5.92264462 9.66332927,5.92264462 L14.4701146,5.92264462 C14.9143553,5.92264462 15.3336388,6.11679144 15.623144,6.45530385 C15.9126493,6.79381626 16.0324445,7.23686924 15.9575725,7.67494409 L14.7895686,14.723967 C14.6695027,15.4522328 14.0371385,15.9858795 13.2971192,15.9834406 L13.2971192,15.9834406 Z" id="路径"></path>
        </g>
    </g>
</svg>